
        <svg xmlns="http://www.w3.org/2000/svg" xmlns:xlink="http://www.w3.org/1999/xlink" version="1.1" width="3162.3083859332733" 
        height="780" viewBox="0 0 3162.3083859332733 780">
			
			<g transform="scale(8.11541929666366) translate(10, 10)">
				<defs id="SvgjsDefs1001"></defs><g id="SvgjsG1007" featureKey="symbolFeature-0" transform="matrix(1.3949172617137315,0,0,1.3949172617137315,-27.942809073381685,-14.22832475110999)" fill="#00adb5"><g xmlns="http://www.w3.org/2000/svg"><path d="M41.165,11.212C27.221,14.36,27.013,29.283,27.013,32.62c0,8.664-3.628,13.863-5.144,15.812   c-1.63,2.096-2.058,3.032-1.739,4.153c0.331,1.162,3.905,0.937,4.067,1.912c0.125,0.749-0.655,1.567-0.361,2.636   c0.199,0.722,1.45,1.363,1.335,1.858c-0.108,0.471-1.028,1.949-0.379,2.707c2.644,3.084,1.68,3.292,1.209,6.265   c-1.119,7.075,9.675,4.62,9.675,4.62c12.708-2.888,13.719,17.474,13.719,17.474h1.901c0,0-1.14-11.66-5.577-16.272   c-4.062-4.225-9.21-3.146-10.731-2.896c-9.206,1.518-7.183-2.719-7.031-3.857c0.343-2.563,0.462-3.761-1.379-6.035   c-0.512-0.631,0.535-1.842,0.228-2.654c-0.307-0.812-1.473-1.003-1.473-1.84c0-1.139,0.85-2.346,0.36-3.122   c-0.65-1.028-3.188-0.981-3.375-2.131c-0.243-1.496,6.385-6.581,6.668-18.711c0.217-9.314,3.224-16.85,12.466-19.449   c8.106-2.278,19.951-0.73,24.692,1.878c6.742,3.706,10.371,8.46,11.408,13.646c1.976,9.868-3.021,19.952-3.826,21.372   c-1.227,2.166-3.307,5.891-4.26,9.097c-2.274,7.653-4.253,8.044-7.419,8.416c-5.96,0.699-6.587-6.285-6.646-7.405h1.112   c0.598,0,1.083-0.485,1.083-1.083v-0.144c0-0.6-0.485-1.084-1.083-1.084h-3.934c-0.599,0-1.084,0.484-1.084,1.084v0.144   c0,0.598,0.485,1.083,1.084,1.083h1.01c1.064,9.672,6.028,9.739,9.233,9.307c3.214-0.433,6.229-3.618,7.132-6.795   c0.506-1.779,2.065-6.926,4.688-10.922c1.517-2.312,4.353-8.412,4.931-14.188C82.61,7.162,50.118,9.19,41.165,11.212z"></path><path d="M50.181,57.483h8.737c0.597,0,1.082-0.485,1.082-1.083v-0.146c0-0.598-0.485-1.082-1.082-1.082h-8.737   c-0.598,0-1.083,0.484-1.083,1.082V56.4C49.098,56.998,49.583,57.483,50.181,57.483z"></path><path d="M49.802,54.838h9.495c0.599,0,1.083-0.484,1.083-1.081v-0.146c0-0.599-0.484-1.082-1.083-1.082h-9.495   c-0.599,0-1.083,0.483-1.083,1.082v0.146C48.719,54.354,49.203,54.838,49.802,54.838z"></path><path d="M50.079,49.875h-0.331c-0.599,0-1.083,0.486-1.083,1.083v0.146c0,0.599,0.484,1.083,1.083,1.083h9.604   c0.598,0,1.083-0.484,1.083-1.083v-0.146c0-0.593-0.479-1.072-1.07-1.08c-0.174-0.906-0.477-2.653-0.526-4.08   c-0.042-1.174,0.124-1.729,0.884-2.6c1.733-1.986,6.823-6.065,6.787-12.095c-0.039-6.454-5.002-11.737-11.336-12.199V18.87   c0,0-0.223-0.004-0.433-0.004c-0.224,0-0.451,0-0.471,0v0.004v0.033c-6.333,0.462-11.297,5.745-11.335,12.199   c-0.036,6.029,5.054,10.109,6.788,12.095c0.76,0.871,0.927,1.426,0.884,2.6C50.554,47.223,50.253,48.967,50.079,49.875z"></path></g></g><g id="SvgjsG1008" featureKey="nameFeature-0" transform="matrix(0.8931920275633478,0,0,0.8931920275633478,102.56387022847704,16.82947359239391)" fill="#ffffff"><path d="M7.949219 40.390625 c-2.1875 0 -4.84375 -0.585937 -7.460937 -1.953125 l2.480469 -4.824219 c1.386719 0.976563 2.734375 1.503906 4.277344 1.503906 c2.304688 0 3.476563 -1.386719 3.476563 -4.6875 l0 -18.652344 l5.859375 0 l0 19.746094 c0 5.78125 -3.515625 8.867188 -8.632812 8.867188 z M39.804687 16.933594 l-10.46875 0 l0 6.40625 l9.277344 0 l0 5.097656 l-9.277344 0 l0 6.386719 l10.46875 0 l0 5.175781 l-16.367187 0 l0 -28.222656 l16.367188 0 l0 5.15625 z M65.117188 11.777344 l5.839844 0 l0 28.222656 l-6.777344 0 l-12.5 -20.175781 l0 20.175781 l-5.839844 0 l0 -28.222656 l6.699219 0 l12.578125 20.058594 l0 -20.058594 z M92.949219 40.390625 c-2.1875 0 -4.84375 -0.585937 -7.460937 -1.953125 l2.480469 -4.824219 c1.386719 0.976563 2.734375 1.503906 4.277344 1.503906 c2.304688 0 3.476563 -1.386719 3.476563 -4.6875 l0 -18.652344 l5.859375 0 l0 19.746094 c0 5.78125 -3.515625 8.867188 -8.632812 8.867188 z M127.324219 40 l-2.050781 -5.820312 l-11.855469 0 l-2.050781 5.820313 l-5.996094 0 l10.390625 -28.222656 l7.167969 0 l10.390625 28.222656 l-5.996094 0 z M115.136719 29.277344 l8.417969 0 l-4.199219 -11.972656 z M150.058594 40.390625 c-8.300781 0 -14.433594 -5.644531 -14.433594 -14.511719 s6.132813 -14.492187 14.433594 -14.492187 c6.289063 0 11.328125 3.222656 13.339844 8.574219 l-5.46875 1.992188 c-1.25 -3.28125 -4.238281 -5.175781 -7.871094 -5.175781 c-4.863281 0 -8.59375 3.398438 -8.59375 9.101563 s3.730469 9.121094 8.59375 9.121094 c3.632813 0 6.621094 -1.914062 7.871094 -5.195312 l5.46875 1.992188 c-2.011719 5.351563 -7.050781 8.59375 -13.339844 8.59375 z M180.703125 40.390625 c-8.300781 0 -14.433594 -5.664062 -14.433594 -14.511719 c0 -8.867187 6.132813 -14.492187 14.433594 -14.492187 c8.28125 0 14.414063 5.625 14.414063 14.492188 c0 8.847656 -6.132812 14.511719 -14.414062 14.511719 z M180.703125 35.019531 c4.863281 0 8.59375 -3.417969 8.59375 -9.140625 c0 -5.703125 -3.730469 -9.101562 -8.59375 -9.101562 s-8.59375 3.398438 -8.59375 9.101563 c0 5.722656 3.730469 9.140625 8.59375 9.140625 z M215.664063 25.097656 c3.183594 0.878906 5.3125 2.96875 5.3125 6.992188 c0 4.765625 -2.890625 7.910156 -8.847656 7.910156 l-11.621094 0 l0 -28.222656 l9.140625 0 c6.09375 0 9.296875 2.929688 9.296875 7.734375 c0 2.480469 -1.074219 4.511719 -3.28125 5.585938 z M209.707032 16.640625 l-3.554687 0 l0 6.640625 l3.808594 0 c2.5 0 3.59375 -1.484375 3.59375 -3.398437 c0 -1.875 -1.230469 -3.242187 -3.847656 -3.242187 z M211.035157 34.980469 c3.164063 0 4.257813 -1.699219 4.257813 -3.535156 c0 -1.875 -1.074219 -3.652344 -4.375 -3.652344 l-4.765625 0 l0 7.1875 l4.882813 0 z M235.566407 40.390625 c-6.054687 0 -10.78125 -2.910156 -11.640625 -8.203125 l6.054688 -1.386719 c0.390625 3.164063 2.714844 4.804688 5.820313 4.804688 c2.382813 0 4.277344 -1.054687 4.257813 -3.4375 c-0.019531 -2.65625 -3.144531 -3.496094 -6.582031 -4.550781 c-4.140625 -1.289062 -8.574219 -2.8125 -8.574219 -8.007812 c0 -5.253906 4.296875 -8.222656 9.960938 -8.222656 c4.960938 0 9.960938 2.011719 11.09375 7.421875 l-5.664062 1.40625 c-0.527344 -2.8125 -2.421875 -4.042969 -5.078125 -4.042969 c-2.363281 0 -4.375 0.976563 -4.375 3.300781 c0 2.167969 2.773438 2.890625 5.976563 3.847656 c4.257813 1.289063 9.296875 2.929688 9.296875 8.554688 c0 5.996094 -5.019531 8.515625 -10.546875 8.515625 z M267.890625 16.933594 l-10.46875 0 l0 6.40625 l9.277344 0 l0 5.097656 l-9.277344 0 l0 6.386719 l10.46875 0 l0 5.175781 l-16.367187 0 l0 -28.222656 l16.367188 0 l0 5.15625 z M293.203126 11.777344 l5.839844 0 l0 28.222656 l-6.777344 0 l-12.5 -20.175781 l0 20.175781 l-5.839844 0 l0 -28.222656 l6.699219 0 l12.578125 20.058594 l0 -20.058594 z"></path></g>
			</g>
		</svg>
	