
        <svg xmlns="http://www.w3.org/2000/svg" xmlns:xlink="http://www.w3.org/1999/xlink" version="1.1" width="3162.3083859332733" 
        height="1066.3153846247415" viewBox="0 0 3162.3083859332733 1066.3153846247415">
			
			<g transform="scale(8.11541929666366) translate(10, 10)">
				<defs id="SvgjsDefs1001"></defs><g id="SvgjsG1007" featureKey="symbolFeature-0" transform="matrix(1.3949172617137315,0,0,1.3949172617137315,-27.942809073381685,-14.22832475110999)" fill="#00adb5"><g xmlns="http://www.w3.org/2000/svg"><path d="M41.165,11.212C27.221,14.36,27.013,29.283,27.013,32.62c0,8.664-3.628,13.863-5.144,15.812   c-1.63,2.096-2.058,3.032-1.739,4.153c0.331,1.162,3.905,0.937,4.067,1.912c0.125,0.749-0.655,1.567-0.361,2.636   c0.199,0.722,1.45,1.363,1.335,1.858c-0.108,0.471-1.028,1.949-0.379,2.707c2.644,3.084,1.68,3.292,1.209,6.265   c-1.119,7.075,9.675,4.62,9.675,4.62c12.708-2.888,13.719,17.474,13.719,17.474h1.901c0,0-1.14-11.66-5.577-16.272   c-4.062-4.225-9.21-3.146-10.731-2.896c-9.206,1.518-7.183-2.719-7.031-3.857c0.343-2.563,0.462-3.761-1.379-6.035   c-0.512-0.631,0.535-1.842,0.228-2.654c-0.307-0.812-1.473-1.003-1.473-1.84c0-1.139,0.85-2.346,0.36-3.122   c-0.65-1.028-3.188-0.981-3.375-2.131c-0.243-1.496,6.385-6.581,6.668-18.711c0.217-9.314,3.224-16.85,12.466-19.449   c8.106-2.278,19.951-0.73,24.692,1.878c6.742,3.706,10.371,8.46,11.408,13.646c1.976,9.868-3.021,19.952-3.826,21.372   c-1.227,2.166-3.307,5.891-4.26,9.097c-2.274,7.653-4.253,8.044-7.419,8.416c-5.96,0.699-6.587-6.285-6.646-7.405h1.112   c0.598,0,1.083-0.485,1.083-1.083v-0.144c0-0.6-0.485-1.084-1.083-1.084h-3.934c-0.599,0-1.084,0.484-1.084,1.084v0.144   c0,0.598,0.485,1.083,1.084,1.083h1.01c1.064,9.672,6.028,9.739,9.233,9.307c3.214-0.433,6.229-3.618,7.132-6.795   c0.506-1.779,2.065-6.926,4.688-10.922c1.517-2.312,4.353-8.412,4.931-14.188C82.61,7.162,50.118,9.19,41.165,11.212z"></path><path d="M50.181,57.483h8.737c0.597,0,1.082-0.485,1.082-1.083v-0.146c0-0.598-0.485-1.082-1.082-1.082h-8.737   c-0.598,0-1.083,0.484-1.083,1.082V56.4C49.098,56.998,49.583,57.483,50.181,57.483z"></path><path d="M49.802,54.838h9.495c0.599,0,1.083-0.484,1.083-1.081v-0.146c0-0.599-0.484-1.082-1.083-1.082h-9.495   c-0.599,0-1.083,0.483-1.083,1.082v0.146C48.719,54.354,49.203,54.838,49.802,54.838z"></path><path d="M50.079,49.875h-0.331c-0.599,0-1.083,0.486-1.083,1.083v0.146c0,0.599,0.484,1.083,1.083,1.083h9.604   c0.598,0,1.083-0.484,1.083-1.083v-0.146c0-0.593-0.479-1.072-1.07-1.08c-0.174-0.906-0.477-2.653-0.526-4.08   c-0.042-1.174,0.124-1.729,0.884-2.6c1.733-1.986,6.823-6.065,6.787-12.095c-0.039-6.454-5.002-11.737-11.336-12.199V18.87   c0,0-0.223-0.004-0.433-0.004c-0.224,0-0.451,0-0.471,0v0.004v0.033c-6.333,0.462-11.297,5.745-11.335,12.199   c-0.036,6.029,5.054,10.109,6.788,12.095c0.76,0.871,0.927,1.426,0.884,2.6C50.554,47.223,50.253,48.967,50.079,49.875z"></path></g></g><g id="SvgjsG1008" featureKey="nameFeature-0" transform="matrix(0.8931920275633478,0,0,0.8931920275633478,102.56387022847704,16.82947359239391)" fill="#2a3441"><path d="M7.949219 40.390625 c-2.1875 0 -4.84375 -0.585937 -7.460937 -1.953125 l2.480469 -4.824219 c1.386719 0.976563 2.734375 1.503906 4.277344 1.503906 c2.304688 0 3.476563 -1.386719 3.476563 -4.6875 l0 -18.652344 l5.859375 0 l0 19.746094 c0 5.78125 -3.515625 8.867188 -8.632812 8.867188 z M39.804687 16.933594 l-10.46875 0 l0 6.40625 l9.277344 0 l0 5.097656 l-9.277344 0 l0 6.386719 l10.46875 0 l0 5.175781 l-16.367187 0 l0 -28.222656 l16.367188 0 l0 5.15625 z M65.117188 11.777344 l5.839844 0 l0 28.222656 l-6.777344 0 l-12.5 -20.175781 l0 20.175781 l-5.839844 0 l0 -28.222656 l6.699219 0 l12.578125 20.058594 l0 -20.058594 z M92.949219 40.390625 c-2.1875 0 -4.84375 -0.585937 -7.460937 -1.953125 l2.480469 -4.824219 c1.386719 0.976563 2.734375 1.503906 4.277344 1.503906 c2.304688 0 3.476563 -1.386719 3.476563 -4.6875 l0 -18.652344 l5.859375 0 l0 19.746094 c0 5.78125 -3.515625 8.867188 -8.632812 8.867188 z M127.324219 40 l-2.050781 -5.820312 l-11.855469 0 l-2.050781 5.820313 l-5.996094 0 l10.390625 -28.222656 l7.167969 0 l10.390625 28.222656 l-5.996094 0 z M115.136719 29.277344 l8.417969 0 l-4.199219 -11.972656 z M150.058594 40.390625 c-8.300781 0 -14.433594 -5.644531 -14.433594 -14.511719 s6.132813 -14.492187 14.433594 -14.492187 c6.289063 0 11.328125 3.222656 13.339844 8.574219 l-5.46875 1.992188 c-1.25 -3.28125 -4.238281 -5.175781 -7.871094 -5.175781 c-4.863281 0 -8.59375 3.398438 -8.59375 9.101563 s3.730469 9.121094 8.59375 9.121094 c3.632813 0 6.621094 -1.914062 7.871094 -5.195312 l5.46875 1.992188 c-2.011719 5.351563 -7.050781 8.59375 -13.339844 8.59375 z M180.703125 40.390625 c-8.300781 0 -14.433594 -5.664062 -14.433594 -14.511719 c0 -8.867187 6.132813 -14.492187 14.433594 -14.492187 c8.28125 0 14.414063 5.625 14.414063 14.492188 c0 8.847656 -6.132812 14.511719 -14.414062 14.511719 z M180.703125 35.019531 c4.863281 0 8.59375 -3.417969 8.59375 -9.140625 c0 -5.703125 -3.730469 -9.101562 -8.59375 -9.101562 s-8.59375 3.398438 -8.59375 9.101563 c0 5.722656 3.730469 9.140625 8.59375 9.140625 z M215.664063 25.097656 c3.183594 0.878906 5.3125 2.96875 5.3125 6.992188 c0 4.765625 -2.890625 7.910156 -8.847656 7.910156 l-11.621094 0 l0 -28.222656 l9.140625 0 c6.09375 0 9.296875 2.929688 9.296875 7.734375 c0 2.480469 -1.074219 4.511719 -3.28125 5.585938 z M209.707032 16.640625 l-3.554687 0 l0 6.640625 l3.808594 0 c2.5 0 3.59375 -1.484375 3.59375 -3.398437 c0 -1.875 -1.230469 -3.242187 -3.847656 -3.242187 z M211.035157 34.980469 c3.164063 0 4.257813 -1.699219 4.257813 -3.535156 c0 -1.875 -1.074219 -3.652344 -4.375 -3.652344 l-4.765625 0 l0 7.1875 l4.882813 0 z M235.566407 40.390625 c-6.054687 0 -10.78125 -2.910156 -11.640625 -8.203125 l6.054688 -1.386719 c0.390625 3.164063 2.714844 4.804688 5.820313 4.804688 c2.382813 0 4.277344 -1.054687 4.257813 -3.4375 c-0.019531 -2.65625 -3.144531 -3.496094 -6.582031 -4.550781 c-4.140625 -1.289062 -8.574219 -2.8125 -8.574219 -8.007812 c0 -5.253906 4.296875 -8.222656 9.960938 -8.222656 c4.960938 0 9.960938 2.011719 11.09375 7.421875 l-5.664062 1.40625 c-0.527344 -2.8125 -2.421875 -4.042969 -5.078125 -4.042969 c-2.363281 0 -4.375 0.976563 -4.375 3.300781 c0 2.167969 2.773438 2.890625 5.976563 3.847656 c4.257813 1.289063 9.296875 2.929688 9.296875 8.554688 c0 5.996094 -5.019531 8.515625 -10.546875 8.515625 z M267.890625 16.933594 l-10.46875 0 l0 6.40625 l9.277344 0 l0 5.097656 l-9.277344 0 l0 6.386719 l10.46875 0 l0 5.175781 l-16.367187 0 l0 -28.222656 l16.367188 0 l0 5.15625 z M293.203126 11.777344 l5.839844 0 l0 28.222656 l-6.777344 0 l-12.5 -20.175781 l0 20.175781 l-5.839844 0 l0 -28.222656 l6.699219 0 l12.578125 20.058594 l0 -20.058594 z"></path></g><g id="SvgjsG1009" featureKey="sloganFeature-0" transform="matrix(0.6943911630841396,0,0,0.6943911630841396,102.31031409701289,69.62013490409984)" fill="#5be1e6"><path d="M4.62 13.88 l0.02 5.84 c0 0.22 0.2 0.3 0.36 0.3 l1.84 0 c0.34 0 0.34 -0.3 0.34 -0.44 c0 -1.88 0 -3.9 0.08 -5.8 c0 -0.32 0.04 -0.62 0.2 -0.92 c0.18 -0.3 2.84 -6.24 3.14 -7.22 c0.04 -0.14 0.12 -0.38 -0.02 -0.5 c-0.24 -0.22 -1.2 -0.12 -1.78 -0.12 c-0.36 0 -0.58 0.14 -0.74 0.5 c-0.68 1.58 -1.38 3.14 -2.08 4.72 c-0.06 0.14 -0.14 0.14 -0.24 0 c-0.22 -0.36 -1.64 -3.88 -1.86 -4.66 c-0.04 -0.1 -0.06 -0.2 -0.12 -0.28 c-0.28 -0.32 -0.74 -0.28 -1.12 -0.28 c-0.5 0 -0.86 0.02 -1.34 0.02 c-0.32 0 -0.34 0.3 -0.28 0.56 c0.02 0.1 0.08 0.2 0.12 0.28 c0.76 1.44 2.9 6.2 3.28 7.1 c0.2 0.42 0.18 0.44 0.2 0.9 z M25.426 8.68 c0.42 1.24 0.52 2.58 0.52 3.9 c0 1.1 -0.2 2.16 -0.48 3.22 c-0.36 1.26 -0.96 2.4 -2.04 3.14 c-0.8 0.58 -1.64 0.96 -2.62 1.06 c-0.14 0 -0.26 0.02 -0.4 0.02 c-0.12 0 -0.24 -0.02 -0.38 -0.02 c-0.98 -0.1 -1.82 -0.48 -2.64 -1.06 c-1.06 -0.74 -1.68 -1.88 -2.02 -3.14 c-0.3 -1.06 -0.48 -2.12 -0.48 -3.22 c0 -1.32 0.1 -2.66 0.52 -3.9 c0.74 -2.14 2.78 -3.66 5 -3.7 c2.22 0.04 4.26 1.56 5.02 3.7 z M23.486 14.04 c0.2 -1.22 0.12 -2.46 -0.12 -3.68 c-0.24 -1.1 -0.72 -2.18 -1.64 -2.84 c-0.16 -0.12 -0.34 -0.22 -0.52 -0.28 c-0.26 -0.12 -0.54 -0.16 -0.8 -0.16 s-0.52 0.04 -0.78 0.16 c-0.2 0.06 -0.36 0.16 -0.52 0.28 c-0.94 0.66 -1.42 1.74 -1.64 2.84 c-0.24 1.22 -0.32 2.46 -0.12 3.68 c0.2 1.1 0.6 2.58 1.64 3.14 c0.44 0.24 0.92 0.4 1.42 0.42 c0.5 -0.02 1 -0.18 1.44 -0.42 c1.04 -0.56 1.44 -2.04 1.64 -3.14 z M30.172 8.28 c0 2.02 0.02 4.06 0.06 6.06 c0.02 1.22 0 2.6 0.58 3.72 c0.74 1.44 2.38 2.08 3.96 1.98 c1.08 -0.08 2.08 -0.36 2.86 -1.16 c1.32 -1.42 1.06 -3.64 1.08 -5.46 c0.04 -2.62 0.1 -5.06 0.1 -7.7 c0 -0.44 -0.14 -0.68 -0.58 -0.7 c-0.54 -0.02 -1.08 0 -1.62 0.04 c-0.22 0 -0.4 0.2 -0.4 0.44 c0.02 1.92 0.06 3.86 0.04 5.8 c-0.02 1.66 0.2 3.5 -0.42 5.08 c-0.24 0.58 -0.78 1.02 -1.42 1.02 c-1.6 -0.04 -1.54 -1.94 -1.6 -3.06 c-0.12 -2.44 0.06 -4.94 0.12 -7.38 c0 -0.46 0 -0.92 0.02 -1.38 c0.02 -0.24 0.06 -0.54 -0.26 -0.56 l-0.36 0 c-0.5 0.04 -1 -0.02 -1.5 0 c-0.48 0.04 -0.64 0.18 -0.64 0.66 c0 0.86 -0.02 1.74 -0.02 2.6 z M45.518 18.5 c0 -0.52 0 -3.8 0.02 -4.06 c0.02 -0.06 0.06 -0.18 0.14 -0.18 s0.12 0.04 0.14 0.1 c0.8 1.56 1.5 3.12 2.22 4.64 c0.1 0.22 0.32 0.86 0.38 0.92 c0.08 0.12 0.22 0.08 0.34 0.08 l2.2 0.02 c0.26 0 0.32 -0.16 0.26 -0.38 c-0.16 -0.6 -1.3 -2.72 -1.56 -3.24 c-0.18 -0.4 -1.38 -2.72 -1.42 -2.9 c-0.04 -0.08 0.26 -0.22 0.3 -0.28 c0.96 -0.86 1.82 -1.74 2 -3.08 c0.2 -1.32 -0.1 -2.76 -0.96 -3.82 c-0.66 -0.78 -1.52 -1.24 -2.54 -1.3 c-0.62 -0.04 -1.22 0.02 -1.84 0 c-0.54 -0.02 -0.92 -0.02 -1.6 -0.02 c-0.32 0 -0.52 0.18 -0.54 0.52 l0 0.24 c-0.04 1.54 0 3.08 0.02 4.6 c0 2.32 -0.04 8.44 -0.04 9.32 c0 0.26 0.04 0.32 0.28 0.32 c0.14 0 0.3 0.02 0.44 0.02 c0.56 0 0.9 -0.02 1.48 -0.02 c0.44 0 0.28 -0.72 0.28 -1.5 z M45.518 10.7 l0.02 -2.02 c0.02 -0.3 -0.08 -0.9 0.2 -1.12 c0.38 -0.28 1.16 0 1.5 0.24 c1 0.68 0.92 2.36 0.38 3.3 c-0.26 0.44 -0.7 0.7 -1.2 0.84 c-0.3 0.08 -0.86 0.18 -0.88 -0.3 c0 -0.32 -0.02 -0.94 -0.02 -0.94 z M67.07 20.02 c0.3 0 1.4 0.02 1.62 -0.02 c0.14 -0.04 0.22 -0.4 0.26 -0.52 c0.12 -0.38 0.2 -0.78 0.3 -1.16 c0.22 -1 2.44 -9.4 3.22 -12.54 c0.04 -0.14 0.08 -0.3 0.04 -0.44 c-0.06 -0.3 -0.24 -0.34 -0.48 -0.34 c-0.46 0.02 -0.92 0 -1.38 0 c-0.52 0 -0.72 0.06 -0.88 0.64 c-0.78 2.68 -1.3 5.88 -2.02 8.6 l-0.12 0.32 c0 0.02 -0.08 0 -0.08 0 c-0.04 -0.1 -0.1 -0.18 -0.12 -0.28 c-0.72 -2.86 -1.9 -8.52 -2.1 -9.06 c-0.12 -0.32 -0.42 -0.22 -0.7 -0.22 c-0.56 0 -1.08 0.02 -1.62 0.02 c-0.2 0.02 -0.34 0.1 -0.32 0.3 c0 0.16 0.22 1.04 0.26 1.28 l0.22 0.84 c0.14 0.64 0.34 1.44 0.48 2.06 c0.76 3.18 1.58 6.36 2.48 9.5 c0.08 0.28 0.14 0.76 0.34 0.92 c0.16 0.14 0.42 0.08 0.6 0.1 z M79.516 14.84 c-0.06 -2.28 -0.04 -4.7 -0.02 -6.96 c0 -0.7 -0.04 -1.46 -0.04 -2.16 c0 -0.76 -0.3 -0.72 -0.7 -0.74 c-0.58 -0.02 -0.84 -0.02 -1.42 -0.02 c-0.38 -0.02 -0.54 0.08 -0.54 0.46 c0 1.96 -0.06 7.5 -0.04 8.3 s0.1 4.44 0.06 5.24 c-0.02 0.28 0 0.56 0.02 0.84 c0.02 0.1 0.08 0.2 0.24 0.2 c0.66 -0.04 1.28 -0.04 1.94 -0.06 c0.24 -0.02 0.44 -0.08 0.54 -0.34 c0.02 -0.14 -0.04 -3.8 -0.04 -4.76 z M87.862 4.9 c-0.38 0.02 -0.76 0.08 -1.14 0.2 c-0.82 0.28 -1.56 0.84 -2.06 1.56 c-0.44 0.66 -0.62 1.44 -0.68 2.22 c-0.04 0.6 0.02 1.22 0.3 1.76 c0.3 0.58 0.82 1.08 1.26 1.56 c0.4 0.42 0.8 0.84 1.24 1.22 c0.4 0.38 0.86 0.68 1.26 1.08 c0.58 0.58 0.8 1.9 0.38 2.62 c-0.5 0.8 -1.68 0.92 -2.46 0.66 c-0.4 -0.14 -0.76 -0.44 -1.1 -0.68 c-0.2 -0.14 -0.44 -0.2 -0.58 0.04 c-0.08 0.12 -0.12 0.26 -0.16 0.38 c-0.14 0.5 -0.32 0.96 -0.34 1.5 c-0.02 0.62 1.16 0.8 1.6 0.9 c1.96 0.46 4.32 0.1 5.34 -1.84 c0.2 -0.4 0.34 -0.82 0.42 -1.26 c0.02 -0.16 0.04 -0.3 0.04 -0.46 c0.08 -1.28 -0.44 -2.36 -1.22 -3.32 c-0.84 -1.04 -1.9 -1.76 -2.88 -2.66 c-0.6 -0.56 -0.82 -1.44 -0.64 -2.24 c0.18 -0.86 1.16 -1.08 1.9 -0.86 c0.22 0.06 0.4 0.16 0.6 0.28 c0.12 0.06 0.24 0.14 0.4 0.14 c0.28 0.02 0.32 -0.2 0.38 -0.42 c0.14 -0.5 0.38 -0.9 0.48 -1.38 c0.1 -0.54 -0.34 -0.64 -0.78 -0.78 c-0.52 -0.14 -1.02 -0.24 -1.56 -0.22 z M98.168 14.84 c-0.06 -2.28 -0.04 -4.7 -0.02 -6.96 c0 -0.7 -0.04 -1.46 -0.04 -2.16 c0 -0.76 -0.3 -0.72 -0.7 -0.74 c-0.58 -0.02 -0.84 -0.02 -1.42 -0.02 c-0.38 -0.02 -0.54 0.08 -0.54 0.46 c0 1.96 -0.06 7.5 -0.04 8.3 s0.1 4.44 0.06 5.24 c-0.02 0.28 0 0.56 0.02 0.84 c0.02 0.1 0.08 0.2 0.24 0.2 c0.66 -0.04 1.28 -0.04 1.94 -0.06 c0.24 -0.02 0.44 -0.08 0.54 -0.34 c0.02 -0.14 -0.04 -3.8 -0.04 -4.76 z M112.974 8.68 c0.42 1.24 0.52 2.58 0.52 3.9 c0 1.1 -0.2 2.16 -0.48 3.22 c-0.36 1.26 -0.96 2.4 -2.04 3.14 c-0.8 0.58 -1.64 0.96 -2.62 1.06 c-0.14 0 -0.26 0.02 -0.4 0.02 c-0.12 0 -0.24 -0.02 -0.38 -0.02 c-0.98 -0.1 -1.82 -0.48 -2.64 -1.06 c-1.06 -0.74 -1.68 -1.88 -2.02 -3.14 c-0.3 -1.06 -0.48 -2.12 -0.48 -3.22 c0 -1.32 0.1 -2.66 0.52 -3.9 c0.74 -2.14 2.78 -3.66 5 -3.7 c2.22 0.04 4.26 1.56 5.02 3.7 z M111.034 14.04 c0.2 -1.22 0.12 -2.46 -0.12 -3.68 c-0.24 -1.1 -0.72 -2.18 -1.64 -2.84 c-0.16 -0.12 -0.34 -0.22 -0.52 -0.28 c-0.26 -0.12 -0.54 -0.16 -0.8 -0.16 s-0.52 0.04 -0.78 0.16 c-0.2 0.06 -0.36 0.16 -0.52 0.28 c-0.94 0.66 -1.42 1.74 -1.64 2.84 c-0.24 1.22 -0.32 2.46 -0.12 3.68 c0.2 1.1 0.6 2.58 1.64 3.14 c0.44 0.24 0.92 0.4 1.42 0.42 c0.5 -0.02 1 -0.18 1.44 -0.42 c1.04 -0.56 1.44 -2.04 1.64 -3.14 z M126.24 5.46 c0.06 0.28 0.02 13.6 0.02 13.94 c0 0.6 -0.22 0.58 -0.62 0.58 c-0.6 0 -1.44 0.1 -1.62 -0.1 c-0.16 -0.14 -3.12 -7.28 -3.54 -8.18 c-0.04 -0.08 -0.14 -0.28 -0.22 -0.24 c-0.1 0.04 -0.06 0.18 -0.06 0.26 c-0.02 0.7 0.1 6.74 0.1 7.7 c0 0.48 -0.02 0.56 -0.42 0.56 l-1 0 c-0.26 0 -0.58 -0.02 -0.84 0.02 c-0.2 0 -0.3 -0.06 -0.32 -0.26 l0 -1.58 c0.04 -1.68 0 -11.64 0 -12.38 c0 -0.64 0.18 -0.76 0.82 -0.76 c0.44 -0.02 0.88 -0.02 1.32 -0.02 c0.14 0 0.22 0.02 0.3 0.2 c0.54 1.26 2.84 7.04 3.2 7.74 c0.06 0.14 0.28 0.7 0.4 0.76 l0.02 0 c0.08 -0.08 0.06 -0.48 0.06 -0.6 c0 -0.3 -0.16 -7.32 -0.16 -7.46 c0 -0.2 -0.06 -0.38 0.04 -0.52 c0.06 -0.08 0.32 -0.1 0.42 -0.12 c0.56 -0.04 1.22 0.02 1.78 0 c0.28 0 0.26 0.2 0.32 0.46 z M131.246 19.24 l0.42 -0.86 c0.06 -0.14 0.12 -0.3 0.18 -0.44 c0.04 -0.08 0.08 -0.34 0.18 -0.32 c0.04 0 0.08 0.02 0.1 0.04 c0.42 0.22 0.82 0.46 1.2 0.72 c0.06 0.04 0.12 0.08 0.16 0.12 c0.14 0.2 -0.08 0.48 -0.2 0.62 c-0.1 0.18 -0.24 0.32 -0.38 0.46 c-0.04 0.06 -0.14 0.14 -0.2 0.2 c-0.56 0.54 -1.14 1.06 -1.78 1.52 c-0.1 0.06 -0.2 0.14 -0.32 0.16 c-0.12 0.04 -0.28 0.02 -0.36 -0.1 c-0.06 -0.12 -0.04 -0.28 0 -0.4 c0.14 -0.38 0.38 -0.7 0.58 -1.04 c0.04 -0.04 0.06 -0.08 0.1 -0.14 z M144.798 15.9 l-0.02 0 c0 0.5 -0.02 1.02 0 1.54 c0.02 0.64 0.06 1.28 0.1 1.92 c0 0.22 0.06 0.28 0.26 0.32 c0.42 0.1 0.82 0.12 1.24 0.12 c1.08 -0.04 2.16 0.04 3.24 0 c0.44 -0.02 0.64 0.02 1.08 -0.06 c0.4 -0.08 0.54 -0.3 0.54 -0.9 c-0.04 -0.38 -0.02 -0.54 -0.02 -1 c0 -0.66 -0.46 -0.88 -0.86 -0.86 c-0.28 0.02 -1.62 -0.02 -2.16 -0.02 c-0.9 0.02 -0.76 0.14 -0.76 -0.8 c0 -0.76 0.02 -1.74 0.02 -2.52 c0 -0.42 0.04 -0.56 0.44 -0.56 l2.5 0 c0.4 0.06 0.68 -0.22 0.68 -0.64 s0.04 -0.44 0.04 -0.86 l-0.06 -0.6 c-0.04 -0.34 -0.16 -0.46 -0.5 -0.46 c-0.22 0 -0.44 0.02 -0.66 0.04 c-0.86 0.06 -1.26 -0.06 -2.1 0 c-0.28 0 -0.32 -0.04 -0.34 -0.3 c-0.08 -0.78 0 -1.64 0.08 -2.42 c0.02 -0.32 0.1 -0.38 0.4 -0.4 l2.82 -0.02 c0.38 -0.04 0.5 -0.02 0.48 -0.4 c-0.04 -0.58 0.02 -1.18 -0.04 -1.76 c-0.04 -0.32 -0.14 -0.38 -0.5 -0.38 c-0.6 0.02 -0.74 0.02 -1.34 0.06 c-0.6 0.02 -3 0.02 -3.58 0.02 c-0.84 0 -0.9 -0.06 -0.92 0.96 c-0.04 0.8 -0.02 1.62 -0.02 2.44 c0 1.4 -0.08 6.42 -0.04 7.54 z M158.144 4.98 c-0.44 0.02 -1.62 0 -1.78 0 c-0.28 -0.02 -0.46 0.14 -0.44 0.42 c0 0.12 0.04 0.24 0.1 0.34 c0.58 1.1 1.12 2.34 1.64 3.46 l1.26 2.64 c0.12 0.26 0.04 0.48 -0.06 0.74 c-0.06 0.14 -0.1 0.3 -0.16 0.44 c-0.78 1.84 -1.66 3.7 -2.6 5.46 c-0.2 0.38 -0.42 0.78 -0.6 1.16 c-0.24 0.48 0.56 0.36 1.46 0.36 c1.42 0 1.44 -0.08 1.52 -0.26 c0.22 -0.46 1.54 -4.54 1.92 -4.54 c0.3 0 1.78 3.94 2.12 4.58 c0.08 0.16 0.34 0.24 0.54 0.24 l1.38 0 c0.26 0 0.88 0.08 0.88 -0.26 c0 -0.26 -1 -1.94 -1.28 -2.56 l-1.22 -2.72 c-0.2 -0.44 -0.38 -0.88 -0.58 -1.3 c-0.14 -0.34 -0.4 -0.78 -0.42 -1.14 c0 -0.2 2.26 -4.58 3.1 -6.64 c0.2 -0.5 -0.56 -0.4 -0.82 -0.4 c-0.48 0.02 -0.88 0 -1.34 0.02 c-0.44 0 -0.56 0.12 -0.72 0.5 l-0.12 0.28 c-0.4 0.84 -0.98 2.38 -1.4 3.22 c-0.02 0.04 -0.08 0.1 -0.12 0.1 c-0.06 0 -0.12 -0.06 -0.12 -0.12 c-0.34 -0.86 -1.04 -2.68 -1.44 -3.5 c-0.18 -0.36 -0.28 -0.54 -0.7 -0.52 z M169.57 7.62 c0.02 1.18 0.02 11.2 0.02 12.02 c0 0.3 0.04 0.36 0.34 0.36 c0.68 0 0.68 0.02 1.36 0 c0.14 0 0.38 0 0.5 -0.06 c0.14 -0.06 0.06 -4.78 0.06 -5.04 c0 -0.28 0.56 -0.22 0.72 -0.22 c3.34 0 4.26 -2.4 4.26 -4.44 c0 -1.84 -0.36 -5.24 -4.52 -5.24 c-0.72 0 -1.46 0.02 -2.16 0.02 c-0.16 0 -0.36 -0.02 -0.5 0.08 c-0.16 0.12 -0.1 1.9 -0.08 2.52 z M171.87 11.74 c0 -0.44 -0.02 -3.06 0 -3.86 c0 -0.12 -0.02 -0.26 0 -0.4 c0.06 -0.22 0.32 -0.22 0.52 -0.2 c1.16 0.08 1.82 1.1 1.92 2.18 c0.08 0.78 -0.02 1.94 -0.58 2.56 c-0.4 0.42 -0.92 0.68 -1.6 0.68 c-0.14 0 -0.28 -0.16 -0.28 -0.3 c0 -0.22 0 -0.44 0.02 -0.66 z M181.076 15.9 l-0.02 0 c0 0.5 -0.02 1.02 0 1.54 c0.02 0.64 0.06 1.28 0.1 1.92 c0 0.22 0.06 0.28 0.26 0.32 c0.42 0.1 0.82 0.12 1.24 0.12 c1.08 -0.04 2.16 0.04 3.24 0 c0.44 -0.02 0.64 0.02 1.08 -0.06 c0.4 -0.08 0.54 -0.3 0.54 -0.9 c-0.04 -0.38 -0.02 -0.54 -0.02 -1 c0 -0.66 -0.46 -0.88 -0.86 -0.86 c-0.28 0.02 -1.62 -0.02 -2.16 -0.02 c-0.9 0.02 -0.76 0.14 -0.76 -0.8 c0 -0.76 0.02 -1.74 0.02 -2.52 c0 -0.42 0.04 -0.56 0.44 -0.56 l2.5 0 c0.4 0.06 0.68 -0.22 0.68 -0.64 s0.04 -0.44 0.04 -0.86 l-0.06 -0.6 c-0.04 -0.34 -0.16 -0.46 -0.5 -0.46 c-0.22 0 -0.44 0.02 -0.66 0.04 c-0.86 0.06 -1.26 -0.06 -2.1 0 c-0.28 0 -0.32 -0.04 -0.34 -0.3 c-0.08 -0.78 0 -1.64 0.08 -2.42 c0.02 -0.32 0.1 -0.38 0.4 -0.4 l2.82 -0.02 c0.38 -0.04 0.5 -0.02 0.48 -0.4 c-0.04 -0.58 0.02 -1.18 -0.04 -1.76 c-0.04 -0.32 -0.14 -0.38 -0.5 -0.38 c-0.6 0.02 -0.74 0.02 -1.34 0.06 c-0.6 0.02 -3 0.02 -3.58 0.02 c-0.84 0 -0.9 -0.06 -0.92 0.96 c-0.04 0.8 -0.02 1.62 -0.02 2.44 c0 1.4 -0.08 6.42 -0.04 7.54 z M194.222 18.5 c0 -0.52 0 -3.8 0.02 -4.06 c0.02 -0.06 0.06 -0.18 0.14 -0.18 s0.12 0.04 0.14 0.1 c0.8 1.56 1.5 3.12 2.22 4.64 c0.1 0.22 0.32 0.86 0.38 0.92 c0.08 0.12 0.22 0.08 0.34 0.08 l2.2 0.02 c0.26 0 0.32 -0.16 0.26 -0.38 c-0.16 -0.6 -1.3 -2.72 -1.56 -3.24 c-0.18 -0.4 -1.38 -2.72 -1.42 -2.9 c-0.04 -0.08 0.26 -0.22 0.3 -0.28 c0.96 -0.86 1.82 -1.74 2 -3.08 c0.2 -1.32 -0.1 -2.76 -0.96 -3.82 c-0.66 -0.78 -1.52 -1.24 -2.54 -1.3 c-0.62 -0.04 -1.22 0.02 -1.84 0 c-0.54 -0.02 -0.92 -0.02 -1.6 -0.02 c-0.32 0 -0.52 0.18 -0.54 0.52 l0 0.24 c-0.04 1.54 0 3.08 0.02 4.6 c0 2.32 -0.04 8.44 -0.04 9.32 c0 0.26 0.04 0.32 0.28 0.32 c0.14 0 0.3 0.02 0.44 0.02 c0.56 0 0.9 -0.02 1.48 -0.02 c0.44 0 0.28 -0.72 0.28 -1.5 z M194.222 10.7 l0.02 -2.02 c0.02 -0.3 -0.08 -0.9 0.2 -1.12 c0.38 -0.28 1.16 0 1.5 0.24 c1 0.68 0.92 2.36 0.38 3.3 c-0.26 0.44 -0.7 0.7 -1.2 0.84 c-0.3 0.08 -0.86 0.18 -0.88 -0.3 c0 -0.32 -0.02 -0.94 -0.02 -0.94 z M206.708 17.82 c0.02 0.62 0.02 1.24 0.04 1.86 c0 0.28 0.02 0.32 0.3 0.32 l1.8 0 c0.38 0 0.3 -0.64 0.28 -0.98 l0.06 -11.2 c0 -0.3 0.1 -0.4 0.5 -0.4 l1.76 0 c0.42 0 0.32 -0.72 0.32 -1.22 c0 -0.44 0.16 -1.2 -0.32 -1.2 c-0.34 0 -3.6 0 -4.94 0.02 c-0.66 0 -1.2 -0.02 -1.86 -0.02 c-0.5 0 -0.48 0.4 -0.48 1.28 c0 0.56 -0.02 1.12 0.46 1.12 c0.28 0 1.42 0 1.74 0.02 c0.2 0 0.34 0.06 0.38 0.28 c0 0.06 0.02 0.12 0.02 0.18 c0 1.44 -0.1 8.14 -0.06 9.94 z M216.014 6.96 c-0.02 1.24 0.1 10.3 0.08 10.96 c0 0.62 0 1.24 0.02 1.86 c0 0.1 0.06 0.2 0.16 0.2 c1.4 0.06 2.78 -0.06 4.18 -0.04 c0.46 0.02 0.92 0 1.36 0 c0.44 -0.02 0.48 -0.2 0.46 -0.56 c-0.02 -0.56 -0.02 -1.06 -0.02 -1.6 c-0.02 -0.28 -0.18 -0.38 -0.42 -0.38 c-0.82 0.02 -1.64 -0.02 -2.46 0.02 c-0.14 0.02 -0.28 0.02 -0.42 0.02 c-0.24 -0.02 -0.3 -0.08 -0.32 -0.34 l0 -0.3 c-0.06 -1.66 0.06 -3.38 0.06 -5.04 c-0.02 -1.4 0 -2.66 -0.02 -3.9 c0 -0.54 0 -1.08 -0.02 -1.6 c-0.02 -0.32 0 -0.66 -0.08 -0.98 c-0.04 -0.12 -0.1 -0.28 -0.24 -0.28 l-1.88 0 c-0.32 0 -0.42 0.22 -0.44 0.54 l0 1.42 z M230.12 13.88 l0.02 5.84 c0 0.22 0.2 0.3 0.36 0.3 l1.84 0 c0.34 0 0.34 -0.3 0.34 -0.44 c0 -1.88 0 -3.9 0.08 -5.8 c0 -0.32 0.04 -0.62 0.2 -0.92 c0.18 -0.3 2.84 -6.24 3.14 -7.22 c0.04 -0.14 0.12 -0.38 -0.02 -0.5 c-0.24 -0.22 -1.2 -0.12 -1.78 -0.12 c-0.36 0 -0.58 0.14 -0.74 0.5 c-0.68 1.58 -1.38 3.14 -2.08 4.72 c-0.06 0.14 -0.14 0.14 -0.24 0 c-0.22 -0.36 -1.64 -3.88 -1.86 -4.66 c-0.04 -0.1 -0.06 -0.2 -0.12 -0.28 c-0.28 -0.32 -0.74 -0.28 -1.12 -0.28 c-0.5 0 -0.86 0.02 -1.34 0.02 c-0.32 0 -0.34 0.3 -0.28 0.56 c0.02 0.1 0.08 0.2 0.12 0.28 c0.76 1.44 2.9 6.2 3.28 7.1 c0.2 0.42 0.18 0.44 0.2 0.9 z M255.512 7.36 c0.02 -0.66 0 -1.2 0 -1.84 c0 -0.74 -1.34 -0.66 -1.82 -0.64 c-2.14 0.14 -4.18 1.5 -5.16 3.36 c-0.28 0.54 -0.48 1.1 -0.62 1.68 c-0.34 1.36 -0.36 2.8 -0.2 4.18 c0.14 1.3 0.48 2.6 1.28 3.64 c1.38 1.82 3.92 2.46 6.1 2.12 c0.1 -0.02 0.2 -0.04 0.28 -0.1 c0.06 -0.04 0.12 -0.12 0.12 -0.2 l0.06 -1.14 c0.02 -0.36 0 -0.34 0 -0.7 c0 -0.48 -1 -0.12 -1.62 -0.12 c-0.6 0 -1.24 -0.02 -1.78 -0.3 c-0.96 -0.54 -1.5 -1.62 -1.8 -2.64 c-0.34 -1.1 -0.42 -2.28 -0.22 -3.4 c0.24 -1.46 0.94 -3.14 2.48 -3.64 c0.88 -0.3 1.82 -0.2 2.7 -0.1 c0.12 0.02 0.2 -0.06 0.2 -0.16 z M270.318 8.68 c0.42 1.24 0.52 2.58 0.52 3.9 c0 1.1 -0.2 2.16 -0.48 3.22 c-0.36 1.26 -0.96 2.4 -2.04 3.14 c-0.8 0.58 -1.64 0.96 -2.62 1.06 c-0.14 0 -0.26 0.02 -0.4 0.02 c-0.12 0 -0.24 -0.02 -0.38 -0.02 c-0.98 -0.1 -1.82 -0.48 -2.64 -1.06 c-1.06 -0.74 -1.68 -1.88 -2.02 -3.14 c-0.3 -1.06 -0.48 -2.12 -0.48 -3.22 c0 -1.32 0.1 -2.66 0.52 -3.9 c0.74 -2.14 2.78 -3.66 5 -3.7 c2.22 0.04 4.26 1.56 5.02 3.7 z M268.378 14.04 c0.2 -1.22 0.12 -2.46 -0.12 -3.68 c-0.24 -1.1 -0.72 -2.18 -1.64 -2.84 c-0.16 -0.12 -0.34 -0.22 -0.52 -0.28 c-0.26 -0.12 -0.54 -0.16 -0.8 -0.16 s-0.52 0.04 -0.78 0.16 c-0.2 0.06 -0.36 0.16 -0.52 0.28 c-0.94 0.66 -1.42 1.74 -1.64 2.84 c-0.24 1.22 -0.32 2.46 -0.12 3.68 c0.2 1.1 0.6 2.58 1.64 3.14 c0.44 0.24 0.92 0.4 1.42 0.42 c0.5 -0.02 1 -0.18 1.44 -0.42 c1.04 -0.56 1.44 -2.04 1.64 -3.14 z M283.484 16.32 c0.12 -0.26 0.22 -0.52 0.32 -0.78 c0.22 -0.64 0.26 -1.3 0.32 -1.96 c0.12 -1.4 0.08 -2.82 -0.28 -4.18 c-0.44 -1.74 -1.56 -3.34 -3.24 -4.08 c-0.76 -0.34 -1.62 -0.38 -2.44 -0.36 c-0.86 0 -1.74 -0.04 -2.6 0.04 c-0.24 0.02 -0.36 0.14 -0.4 0.36 c-0.04 0.24 -0.08 0.48 -0.08 0.7 c0.04 1.22 0 4.84 0.04 5.44 c0.02 0.54 -0.04 1.2 -0.04 1.74 c0.02 1.34 0 2.7 0 4.04 c0 0.56 -0.02 1.1 -0.02 1.66 c0 0.6 -0.22 0.86 1.42 0.86 c1.46 0 2.98 -0.12 4.36 -0.64 c1.28 -0.46 2.08 -1.64 2.64 -2.84 z M277.664 14.24 l0 -2.4 c0 -1.52 0.04 -2.5 -0.02 -3.78 l0 -0.24 c0.02 -0.42 0.08 -0.44 0.52 -0.44 c0.58 -0.02 1 0.12 1.5 0.32 s0.78 0.64 1.04 1.06 c0.5 0.82 0.7 1.72 0.74 2.66 c0.02 0.54 0.04 1.08 0.04 1.62 c0 2.56 -1.5 4.34 -2.82 4.34 c-0.88 0 -1.02 0.06 -1.02 -0.52 c0 -0.6 0.04 -1.2 0.04 -1.8 c-0.02 -0.26 -0.02 -0.54 -0.02 -0.82 z M288.43 15.9 l-0.02 0 c0 0.5 -0.02 1.02 0 1.54 c0.02 0.64 0.06 1.28 0.1 1.92 c0 0.22 0.06 0.28 0.26 0.32 c0.42 0.1 0.82 0.12 1.24 0.12 c1.08 -0.04 2.16 0.04 3.24 0 c0.44 -0.02 0.64 0.02 1.08 -0.06 c0.4 -0.08 0.54 -0.3 0.54 -0.9 c-0.04 -0.38 -0.02 -0.54 -0.02 -1 c0 -0.66 -0.46 -0.88 -0.86 -0.86 c-0.28 0.02 -1.62 -0.02 -2.16 -0.02 c-0.9 0.02 -0.76 0.14 -0.76 -0.8 c0 -0.76 0.02 -1.74 0.02 -2.52 c0 -0.42 0.04 -0.56 0.44 -0.56 l2.5 0 c0.4 0.06 0.68 -0.22 0.68 -0.64 s0.04 -0.44 0.04 -0.86 l-0.06 -0.6 c-0.04 -0.34 -0.16 -0.46 -0.5 -0.46 c-0.22 0 -0.44 0.02 -0.66 0.04 c-0.86 0.06 -1.26 -0.06 -2.1 0 c-0.28 0 -0.32 -0.04 -0.34 -0.3 c-0.08 -0.78 0 -1.64 0.08 -2.42 c0.02 -0.32 0.1 -0.38 0.4 -0.4 l2.82 -0.02 c0.38 -0.04 0.5 -0.02 0.48 -0.4 c-0.04 -0.58 0.02 -1.18 -0.04 -1.76 c-0.04 -0.32 -0.14 -0.38 -0.5 -0.38 c-0.6 0.02 -0.74 0.02 -1.34 0.06 c-0.6 0.02 -3 0.02 -3.58 0.02 c-0.84 0 -0.9 -0.06 -0.92 0.96 c-0.04 0.8 -0.02 1.62 -0.02 2.44 c0 1.4 -0.08 6.42 -0.04 7.54 z M307.516 16.32 c0.12 -0.26 0.22 -0.52 0.32 -0.78 c0.22 -0.64 0.26 -1.3 0.32 -1.96 c0.12 -1.4 0.08 -2.82 -0.28 -4.18 c-0.44 -1.74 -1.56 -3.34 -3.24 -4.08 c-0.76 -0.34 -1.62 -0.38 -2.44 -0.36 c-0.86 0 -1.74 -0.04 -2.6 0.04 c-0.24 0.02 -0.36 0.14 -0.4 0.36 c-0.04 0.24 -0.08 0.48 -0.08 0.7 c0.04 1.22 0 4.84 0.04 5.44 c0.02 0.54 -0.04 1.2 -0.04 1.74 c0.02 1.34 0 2.7 0 4.04 c0 0.56 -0.02 1.1 -0.02 1.66 c0 0.6 -0.22 0.86 1.42 0.86 c1.46 0 2.98 -0.12 4.36 -0.64 c1.28 -0.46 2.08 -1.64 2.64 -2.84 z M301.696 14.24 l0 -2.4 c0 -1.52 0.04 -2.5 -0.02 -3.78 l0 -0.24 c0.02 -0.42 0.08 -0.44 0.52 -0.44 c0.58 -0.02 1 0.12 1.5 0.32 s0.78 0.64 1.04 1.06 c0.5 0.82 0.7 1.72 0.74 2.66 c0.02 0.54 0.04 1.08 0.04 1.62 c0 2.56 -1.5 4.34 -2.82 4.34 c-0.88 0 -1.02 0.06 -1.02 -0.52 c0 -0.6 0.04 -1.2 0.04 -1.8 c-0.02 -0.26 -0.02 -0.54 -0.02 -0.82 z"></path></g>
			</g>
		</svg>
	